<svg width="24" height="24" viewBox="0 0 24 24" fill="none" xmlns="http://www.w3.org/2000/svg">
<g id="bxl-linkedin">
<path id="Vector" d="M4.98292 7.1968C6.19132 7.1968 7.17092 6.2172 7.17092 5.0088C7.17092 3.8004 6.19132 2.8208 4.98292 2.8208C3.77452 2.8208 2.79492 3.8004 2.79492 5.0088C2.79492 6.2172 3.77452 7.1968 4.98292 7.1968Z" fill="#0C0C1C"/>
<path id="Vector_2" d="M9.23575 8.85469V20.9937H13.0047V14.9907C13.0047 13.4067 13.3027 11.8727 15.2667 11.8727C17.2037 11.8727 17.2277 13.6837 17.2277 15.0907V20.9947H20.9988V14.3377C20.9988 11.0677 20.2948 8.55469 16.4728 8.55469C14.6378 8.55469 13.4078 9.56169 12.9047 10.5147H12.8537V8.85469H9.23575ZM3.09375 8.85469H6.86875V20.9937H3.09375V8.85469Z" fill="#0C0C1C"/>
</g>
</svg>
