<svg width="56" height="50" viewBox="0 0 56 50" fill="none" xmlns="http://www.w3.org/2000/svg">
<g id="Icon 2">
<path id="Rectangle 3740" d="M0 6C0 2.68629 2.68629 0 6 0H50C53.3137 0 56 2.68629 56 6V32C56 35.3137 53.3137 38 50 38H30.5153C29.539 38 28.5963 38.3571 27.865 39.004L17.6626 48.0293C17.0172 48.6002 16 48.142 16 47.2803V39C16 38.4477 15.5523 38 15 38H6C2.68629 38 0 35.3137 0 32V6Z" fill="#FF623E"/>
<circle id="Ellipse 1186" cx="16" cy="19" r="3" fill="white"/>
<circle id="Ellipse 1187" cx="28" cy="19" r="3" fill="white"/>
<circle id="Ellipse 1188" cx="40" cy="19" r="3" fill="white"/>
</g>
</svg>
