<svg width="28" height="28" viewBox="0 0 28 28" fill="none" xmlns="http://www.w3.org/2000/svg">
<g id="vuesax/bold/message-notif">
<g id="message-notif">
<path id="Vector" d="M23.3333 7.87501C25.1052 7.87501 26.5417 6.43859 26.5417 4.66668C26.5417 2.89476 25.1052 1.45834 23.3333 1.45834C21.5614 1.45834 20.125 2.89476 20.125 4.66668C20.125 6.43859 21.5614 7.87501 23.3333 7.87501Z" fill="white"/>
<path id="Vector_2" d="M22.214 9.5085C20.3823 9.11183 18.889 7.6185 18.4923 5.78683C18.3407 5.07516 18.329 4.38683 18.4573 3.7335C18.609 3.01016 18.0723 2.3335 17.3257 2.3335H8.16732C4.94732 2.3335 2.33398 4.94683 2.33398 8.16683V16.2752C2.33398 19.4952 4.94732 22.1085 8.16732 22.1085H9.91732C10.244 22.1085 10.664 22.3185 10.8507 22.5752L12.6007 24.8968C13.3707 25.9235 14.6307 25.9235 15.4007 24.8968L17.1507 22.5752C17.3723 22.2835 17.7107 22.1085 18.084 22.1085H19.8457C23.0657 22.1085 25.6673 19.5068 25.6673 16.2868V10.6752C25.6673 9.94016 24.9907 9.4035 24.2673 9.5435C23.614 9.66016 22.9257 9.66016 22.214 9.5085ZM9.33398 14.0002C8.68065 14.0002 8.16732 13.4752 8.16732 12.8335C8.16732 12.1918 8.68065 11.6668 9.33398 11.6668C9.97565 11.6668 10.5007 12.1918 10.5007 12.8335C10.5007 13.4752 9.98732 14.0002 9.33398 14.0002ZM14.0007 14.0002C13.3473 14.0002 12.834 13.4752 12.834 12.8335C12.834 12.1918 13.3473 11.6668 14.0007 11.6668C14.6423 11.6668 15.1673 12.1918 15.1673 12.8335C15.1673 13.4752 14.654 14.0002 14.0007 14.0002ZM18.6673 14.0002C18.014 14.0002 17.5007 13.4752 17.5007 12.8335C17.5007 12.1918 18.014 11.6668 18.6673 11.6668C19.309 11.6668 19.834 12.1918 19.834 12.8335C19.834 13.4752 19.3207 14.0002 18.6673 14.0002Z" fill="white"/>
</g>
</g>
</svg>
