<svg width="40" height="40" viewBox="0 0 40 40" fill="none" xmlns="http://www.w3.org/2000/svg">
  <!-- service section -->
  <g id="monitor">
    <g id="Layer 2">
    <path id="Vector" d="M34.9994 31.2504H4.99935C3.78404 31.2495 2.61877 30.7664 1.75942 29.907C0.900067 29.0477 0.416899 27.8824 0.416016 26.6671V6.66707C0.416899 5.45177 0.900067 4.28649 1.75942 3.42714C2.61877 2.56779 3.78404 2.08462 4.99935 2.08374H34.9994C36.2147 2.08462 37.3799 2.56779 38.2393 3.42714C39.0986 4.28649 39.5818 5.45177 39.5827 6.66707V26.6671C39.5818 27.8824 39.0986 29.0477 38.2393 29.907C37.3799 30.7664 36.2147 31.2495 34.9994 31.2504ZM4.99935 4.58374C4.44709 4.58462 3.91769 4.8044 3.52718 5.19491C3.13667 5.58542 2.9169 6.11481 2.91602 6.66707V26.6671C2.9169 27.2193 3.13667 27.7487 3.52718 28.1392C3.91769 28.5297 4.44709 28.7495 4.99935 28.7504H34.9994C35.5516 28.7495 36.081 28.5297 36.4715 28.1392C36.862 27.7487 37.0818 27.2193 37.0827 26.6671V6.66707C37.0818 6.11481 36.862 5.58542 36.4715 5.19491C36.081 4.8044 35.5516 4.58462 34.9994 4.58374H4.99935Z" fill="currentColor"/>
    <path id="Vector_2" d="M33.3329 37.9174C33.2306 37.9175 33.1288 37.9052 33.0295 37.8808C28.7558 36.8794 24.3882 36.333 19.9995 36.2508C15.6316 36.162 11.2737 36.7019 7.05953 37.8541C6.74753 37.9494 6.41063 37.919 6.12077 37.7693C5.83091 37.6196 5.61105 37.3625 5.50815 37.0529C5.40525 36.7433 5.42745 36.4058 5.57002 36.1124C5.71259 35.8189 5.96423 35.5929 6.2712 35.4824C10.7367 34.2306 15.363 33.647 19.9995 33.7508C24.5932 33.8249 29.1654 34.396 33.6362 35.4541C33.9328 35.5276 34.1922 35.7071 34.3654 35.9588C34.5386 36.2105 34.6137 36.5169 34.5763 36.8202C34.539 37.1235 34.3918 37.4025 34.1627 37.6047C33.9336 37.8069 33.6384 37.9181 33.3329 37.9174Z" fill="currentColor"/>
    </g>
  </g>
  <g id="target">
    <g id="Layer 2">
      <path id="Vector" d="M17.5007 37.9159C13.4119 37.9159 9.49061 36.2916 6.59942 33.4004C3.70824 30.5093 2.08398 26.588 2.08398 22.4992C2.08398 18.4105 3.70824 14.4892 6.59942 11.598C9.49061 8.7068 13.4119 7.08255 17.5007 7.08255C18.3714 7.08082 19.2407 7.15387 20.099 7.30088C20.4256 7.35813 20.7162 7.54279 20.9067 7.81425C21.0972 8.08571 21.1721 8.42172 21.1148 8.74838C21.0576 9.07504 20.8729 9.36558 20.6015 9.55609C20.33 9.74659 19.994 9.82146 19.6673 9.76422C18.9516 9.64215 18.2267 9.58137 17.5007 9.58255C14.946 9.58255 12.4487 10.3401 10.3245 11.7594C8.2004 13.1787 6.54484 15.196 5.56721 17.5562C4.58958 19.9164 4.33378 22.5135 4.83217 25.0191C5.33057 27.5247 6.56076 29.8263 8.36719 31.6327C10.1736 33.4391 12.4751 34.6693 14.9807 35.1677C17.4863 35.6661 20.0834 35.4103 22.4436 34.4327C24.8039 33.455 26.8212 31.7995 28.2405 29.6753C29.6598 27.5512 30.4173 25.0539 30.4173 22.4992C30.4215 21.5338 30.3096 20.5713 30.084 19.6326C30.0419 19.4723 30.0321 19.3053 30.0552 19.1413C30.0782 18.9772 30.1336 18.8194 30.2182 18.6769C30.3028 18.5345 30.4148 18.4103 30.5478 18.3115C30.6808 18.2128 30.8322 18.1414 30.993 18.1017C31.1538 18.0619 31.3209 18.0545 31.4846 18.0799C31.6483 18.1053 31.8054 18.163 31.9466 18.2496C32.0878 18.3362 32.2104 18.45 32.3072 18.5844C32.4041 18.7189 32.4732 18.8712 32.5107 19.0326C32.7836 20.1678 32.919 21.3317 32.914 22.4992C32.9096 26.586 31.2844 30.5043 28.3949 33.3944C25.5053 36.2845 21.5875 37.9106 17.5007 37.9159Z" fill="currentColor"/>
      <path id="Vector_2" d="M17.5 31.2502C15.1794 31.2502 12.9538 30.3284 11.3128 28.6874C9.67187 27.0465 8.75 24.8209 8.75 22.5002C8.75 20.1796 9.67187 17.954 11.3128 16.3131C12.9538 14.6721 15.1794 13.7502 17.5 13.7502C17.9081 13.7472 18.3158 13.7739 18.72 13.8302C19.048 13.8797 19.3429 14.0575 19.5398 14.3244C19.7367 14.5914 19.8195 14.9256 19.77 15.2536C19.7205 15.5816 19.5427 15.8764 19.2758 16.0734C19.0089 16.2703 18.6747 16.3531 18.3467 16.3036C18.0662 16.2647 17.7832 16.2468 17.5 16.2502C16.2639 16.2502 15.0555 16.6168 14.0277 17.3036C12.9999 17.9903 12.1988 18.9664 11.7258 20.1085C11.2527 21.2505 11.1289 22.5072 11.3701 23.7196C11.6112 24.9319 12.2065 26.0456 13.0806 26.9197C13.9547 27.7937 15.0683 28.389 16.2807 28.6301C17.4931 28.8713 18.7497 28.7475 19.8918 28.2745C21.0338 27.8014 22.0099 27.0004 22.6967 25.9726C23.3834 24.9447 23.75 23.7364 23.75 22.5002C23.7528 21.9827 23.6838 21.4672 23.545 20.9686C23.4939 20.7824 23.4863 20.587 23.5227 20.3974C23.5592 20.2078 23.6387 20.0291 23.7551 19.8752C23.8716 19.7212 24.0219 19.596 24.1944 19.5094C24.3668 19.4227 24.557 19.3768 24.75 19.3752C25.0416 19.3738 25.3245 19.4748 25.5493 19.6606C25.7741 19.8464 25.9265 20.1052 25.98 20.3919C26.1619 21.0798 26.2527 21.7887 26.25 22.5002C26.2474 24.8201 25.3246 27.0441 23.6843 28.6845C22.0439 30.3249 19.8198 31.2476 17.5 31.2502Z" fill="currentColor"/>
      <g id="Group">
        <path id="Vector_3" d="M17.4997 23.7497C17.2582 23.75 17.0219 23.6804 16.8191 23.5492C16.6164 23.4181 16.456 23.2311 16.3573 23.0107C16.2586 22.7904 16.2258 22.5462 16.2629 22.3076C16.3 22.069 16.4054 21.8463 16.5664 21.6663L24.2664 13.023C24.3758 12.9004 24.5083 12.8006 24.6563 12.7293C24.8043 12.6579 24.9649 12.6164 25.129 12.6071C25.293 12.5978 25.4573 12.6209 25.6124 12.6751C25.7675 12.7293 25.9105 12.8136 26.033 12.923C26.1556 13.0324 26.2554 13.1649 26.3268 13.3129C26.3981 13.4609 26.4396 13.6216 26.4489 13.7856C26.4582 13.9497 26.4351 14.1139 26.3809 14.2691C26.3267 14.4242 26.2425 14.5671 26.133 14.6897L18.433 23.333C18.3157 23.4644 18.1718 23.5694 18.011 23.6412C17.8501 23.713 17.6759 23.75 17.4997 23.7497Z" fill="currentColor"/>
        <path id="Vector_4" d="M31.0904 16.2847C31.0081 16.2852 30.9261 16.2774 30.8454 16.2614L24.9537 15.083C24.7114 15.0348 24.4888 14.9157 24.3141 14.741C24.1394 14.5663 24.0203 14.3437 23.9721 14.1014L22.7937 8.20971C22.7535 8.00804 22.7636 7.79956 22.8232 7.60273C22.8828 7.40591 22.99 7.22683 23.1354 7.08138L29.0287 1.18804C29.1887 1.02796 29.3891 0.914292 29.6085 0.859176C29.828 0.804059 30.0584 0.809558 30.275 0.875086C30.4916 0.940614 30.6863 1.06371 30.8384 1.23125C30.9905 1.39879 31.0943 1.60448 31.1387 1.82638L32.1521 6.90304L37.2287 7.91638C37.4506 7.96076 37.6563 8.06455 37.8238 8.21667C37.9914 8.36879 38.1145 8.56354 38.18 8.78014C38.2455 8.99674 38.251 9.22707 38.1959 9.44655C38.1408 9.66603 38.0271 9.86643 37.8671 10.0264L31.9754 15.9197C31.7402 16.1535 31.422 16.2848 31.0904 16.2847ZM26.2571 12.7947L30.6771 13.6797L34.4437 9.90971L30.8421 9.18971C30.6001 9.14166 30.3778 9.02289 30.2033 8.84844C30.0289 8.67399 29.9101 8.4517 29.8621 8.20971L29.1421 4.60804L25.3737 8.37471L26.2571 12.7947Z" fill="currentColor"/>
      </g>
    </g>
  </g>
  <g id="briefcase">
    <g id="Group">
      <path id="Vector" d="M28.3337 12.9167H11.667C11.3355 12.9167 11.0175 12.785 10.7831 12.5506C10.5487 12.3161 10.417 11.9982 10.417 11.6667V8.33333C10.4179 7.11803 10.901 5.95275 11.7604 5.0934C12.6197 4.23405 13.785 3.75088 15.0003 3.75H25.0003C26.2156 3.75088 27.3809 4.23405 28.2403 5.0934C29.0996 5.95275 29.5828 7.11803 29.5837 8.33333V11.6667C29.5837 11.9982 29.452 12.3161 29.2175 12.5506C28.9831 12.785 28.6652 12.9167 28.3337 12.9167ZM12.917 10.4167H27.0837V8.33333C27.0828 7.78107 26.863 7.25168 26.4725 6.86117C26.082 6.47066 25.5526 6.25088 25.0003 6.25H15.0003C14.4481 6.25088 13.9187 6.47066 13.5282 6.86117C13.1377 7.25168 12.9179 7.78107 12.917 8.33333V10.4167Z" fill="currentColor"/>
      <path id="Vector_2" d="M32.1169 24.5834H26.6669C26.3354 24.5834 26.0174 24.4517 25.783 24.2173C25.5486 23.9828 25.4169 23.6649 25.4169 23.3334C25.4169 23.0018 25.5486 22.6839 25.783 22.4495C26.0174 22.2151 26.3354 22.0834 26.6669 22.0834H32.1169C32.6208 22.0823 33.1073 21.899 33.4866 21.5672C33.8658 21.2355 34.1122 20.7777 34.1802 20.2784L35.1669 13.39C35.1736 13.3304 35.1679 13.2699 35.1501 13.2126C35.1324 13.1552 35.1029 13.1021 35.0636 13.0567C35.0253 13.0126 34.9779 12.9774 34.9247 12.9535C34.8714 12.9296 34.8136 12.9176 34.7552 12.9184H5.25024C5.19188 12.9176 5.13407 12.9296 5.08082 12.9535C5.02757 12.9774 4.98017 13.0126 4.94191 13.0567C4.90148 13.1041 4.87153 13.1594 4.85401 13.2192C4.83649 13.2789 4.8318 13.3417 4.84024 13.4034L5.82191 20.2917C5.89249 20.7884 6.13982 21.243 6.51851 21.5721C6.8972 21.9012 7.38186 22.0827 7.88357 22.0834H16.6669C16.9984 22.0834 17.3164 22.2151 17.5508 22.4495C17.7852 22.6839 17.9169 23.0018 17.9169 23.3334C17.9169 23.6649 17.7852 23.9828 17.5508 24.2173C17.3164 24.4517 16.9984 24.5834 16.6669 24.5834H7.88357C6.78078 24.5848 5.71456 24.188 4.88103 23.4659C4.04751 22.7438 3.50273 21.7451 3.34691 20.6534L2.36191 13.7434C2.30516 13.327 2.33828 12.9033 2.45902 12.5008C2.57977 12.0983 2.78534 11.7264 3.06191 11.41C3.334 11.0966 3.67012 10.8452 4.04761 10.6727C4.42511 10.5002 4.8352 10.4106 5.25024 10.41H34.7502C35.1666 10.411 35.5779 10.5009 35.9567 10.6738C36.3354 10.8467 36.6728 11.0985 36.9463 11.4124C37.2198 11.7263 37.4231 12.095 37.5425 12.4939C37.6619 12.8927 37.6946 13.3125 37.6386 13.725L36.6552 20.6367C36.5024 21.7315 35.9588 22.734 35.1247 23.4594C34.2906 24.1847 33.2223 24.5839 32.1169 24.5834Z" fill="currentColor"/>
      <path id="Vector_3" d="M30.0003 37.9171H10.0003C8.78502 37.9162 7.61974 37.433 6.76039 36.5737C5.90104 35.7143 5.41788 34.549 5.41699 33.3337V23.3337C5.41699 23.0022 5.54869 22.6843 5.78311 22.4499C6.01753 22.2154 6.33547 22.0837 6.66699 22.0837H16.667C16.9985 22.0837 17.3165 22.2154 17.5509 22.4499C17.7853 22.6843 17.917 23.0022 17.917 23.3337C17.917 23.6653 17.7853 23.9832 17.5509 24.2176C17.3165 24.452 16.9985 24.5837 16.667 24.5837H7.91699V33.3337C7.91787 33.886 8.13765 34.4154 8.52816 34.8059C8.91867 35.1964 9.44806 35.4162 10.0003 35.4171H30.0003C30.5526 35.4162 31.082 35.1964 31.4725 34.8059C31.863 34.4154 32.0828 33.886 32.0837 33.3337V24.5837H26.667C26.3355 24.5837 26.0175 24.452 25.7831 24.2176C25.5487 23.9832 25.417 23.6653 25.417 23.3337C25.417 23.0022 25.5487 22.6843 25.7831 22.4499C26.0175 22.2154 26.3355 22.0837 26.667 22.0837H33.3337C33.6652 22.0837 33.9831 22.2154 34.2175 22.4499C34.452 22.6843 34.5837 23.0022 34.5837 23.3337V33.3337C34.5828 34.549 34.0996 35.7143 33.2403 36.5737C32.3809 37.433 31.2156 37.9162 30.0003 37.9171Z" fill="currentColor"/>
    </g>
    <path id="Vector_4" d="M21.666 27.9167H18.3327C17.5594 27.9158 16.8181 27.6082 16.2713 27.0614C15.7245 26.5146 15.4169 25.7733 15.416 25V21.6667C15.4169 20.8934 15.7245 20.152 16.2713 19.6052C16.8181 19.0585 17.5594 18.7509 18.3327 18.75H21.666C22.4393 18.7509 23.1806 19.0585 23.7274 19.6052C24.2742 20.152 24.5818 20.8934 24.5827 21.6667V25C24.5818 25.7733 24.2742 26.5146 23.7274 27.0614C23.1806 27.6082 22.4393 27.9158 21.666 27.9167ZM18.3327 21.25C18.2222 21.25 18.1162 21.2939 18.0381 21.372C17.9599 21.4502 17.916 21.5562 17.916 21.6667V25C17.916 25.1105 17.9599 25.2165 18.0381 25.2946C18.1162 25.3728 18.2222 25.4167 18.3327 25.4167H21.666C21.7765 25.4167 21.8825 25.3728 21.9606 25.2946C22.0388 25.2165 22.0827 25.1105 22.0827 25V21.6667C22.0827 21.5562 22.0388 21.4502 21.9606 21.372C21.8825 21.2939 21.7765 21.25 21.666 21.25H18.3327Z" fill="currentColor"/>
  </g>
  <g id="pencil">
    <g id="Layer 2">
      <g id="Group">
        <path id="Vector" d="M7.09575 34.1462C6.65315 34.1445 6.21672 34.0422 5.8195 33.847C5.42229 33.6517 5.07468 33.3687 4.80299 33.0193C4.5313 32.6699 4.34264 32.2633 4.2513 31.8302C4.15996 31.3971 4.16832 30.9489 4.27575 30.5196L5.84742 24.2362C5.97474 23.7211 6.24176 23.251 6.61908 22.8779L25.1441 4.34955C26.3289 3.24555 27.8959 2.64452 29.5151 2.67309C31.1343 2.70166 32.6792 3.35759 33.8243 4.5027C34.9694 5.64781 35.6253 7.19269 35.6539 8.81186C35.6824 10.431 35.0814 11.9981 33.9774 13.1829L15.4524 31.7179C15.08 32.0937 14.6111 32.3595 14.0974 32.4862L7.81408 34.0579C7.57915 34.1166 7.3379 34.1462 7.09575 34.1462ZM29.5624 5.01955C29.0698 5.01836 28.5818 5.11481 28.1267 5.30333C27.6715 5.49185 27.2583 5.7687 26.9107 6.11788L8.38242 24.6479C8.32863 24.701 8.29057 24.7679 8.27242 24.8412L6.70242 31.1262C6.68324 31.196 6.68318 31.2696 6.70224 31.3394C6.7213 31.4092 6.75878 31.4726 6.81075 31.5229C6.86131 31.574 6.92442 31.6109 6.99375 31.6299C7.06308 31.6489 7.13619 31.6494 7.20575 31.6312L13.5007 30.0612C13.5726 30.0436 13.6383 30.0067 13.6907 29.9546L32.2157 11.4229C32.7401 10.8981 33.097 10.2297 33.2415 9.50208C33.3861 8.77448 33.3116 8.02037 33.0277 7.33506C32.7437 6.64975 32.2629 6.06401 31.6461 5.65187C31.0294 5.23972 30.3042 5.01968 29.5624 5.01955Z" fill="currentColor"/>
        <path id="Vector_2" d="M14.3681 32.2167C14.2039 32.2171 14.0413 32.1849 13.8897 32.122C13.738 32.059 13.6004 31.9666 13.4848 31.8501L6.48476 24.8501C6.36195 24.7356 6.26345 24.5976 6.19513 24.4443C6.12681 24.291 6.09007 24.1254 6.08711 23.9576C6.08415 23.7898 6.11502 23.623 6.17789 23.4674C6.24076 23.3118 6.33433 23.1704 6.45303 23.0517C6.57173 22.933 6.71312 22.8394 6.86877 22.7765C7.02441 22.7137 7.19113 22.6828 7.35897 22.6857C7.5268 22.6887 7.69233 22.7254 7.84566 22.7938C7.99899 22.8621 8.13699 22.9606 8.25143 23.0834L15.2514 30.0834C15.426 30.2582 15.5449 30.4808 15.593 30.7232C15.6412 30.9655 15.6164 31.2167 15.5219 31.4449C15.4274 31.6732 15.2673 31.8683 15.062 32.0057C14.8566 32.1431 14.6152 32.2165 14.3681 32.2167Z" fill="currentColor"/>
        <path id="Vector_3" d="M31.2124 15.44C30.8805 15.44 30.5621 15.3081 30.3274 15.0734L23.2608 8.00005C23.1447 7.88394 23.0526 7.74609 22.9897 7.59439C22.9269 7.44268 22.8945 7.28008 22.8945 7.11588C22.8945 6.95167 22.9269 6.78908 22.9897 6.63737C23.0526 6.48567 23.1447 6.34782 23.2608 6.23171C23.3769 6.1156 23.5147 6.0235 23.6664 5.96066C23.8181 5.89782 23.9807 5.86548 24.1449 5.86548C24.3091 5.86548 24.4717 5.89782 24.6234 5.96066C24.7751 6.0235 24.913 6.1156 25.0291 6.23171L32.0958 13.2984C32.2701 13.4734 32.3888 13.6961 32.4368 13.9385C32.4848 14.1808 32.46 14.432 32.3656 14.6602C32.2711 14.8885 32.1112 15.0838 31.906 15.2213C31.7008 15.3589 31.4595 15.4327 31.2124 15.4334V15.44Z" fill="currentColor"/>
        <path id="Vector_4" d="M10.9406 28.6428C10.6935 28.6422 10.4522 28.5684 10.247 28.4308C10.0418 28.2932 9.88192 28.098 9.78747 27.8697C9.69302 27.6414 9.66823 27.3903 9.71625 27.1479C9.76426 26.9056 9.88291 26.6829 10.0573 26.5078L24.1173 12.4495C24.3542 12.2287 24.6676 12.1085 24.9915 12.1142C25.3153 12.1199 25.6243 12.2511 25.8533 12.4801C26.0823 12.7092 26.2135 13.0181 26.2192 13.342C26.2249 13.6658 26.1047 13.9792 25.8839 14.2162L11.8339 28.2762C11.7167 28.3934 11.5774 28.4862 11.4241 28.5491C11.2707 28.6121 11.1064 28.6439 10.9406 28.6428Z" fill="currentColor"/>
      </g>
      <path id="Vector_5" d="M35.0007 37.9163H18.334C18.0025 37.9163 17.6845 37.7846 17.4501 37.5501C17.2157 37.3157 17.084 36.9978 17.084 36.6663C17.084 36.3347 17.2157 36.0168 17.4501 35.7824C17.6845 35.548 18.0025 35.4163 18.334 35.4163H35.0007C35.3322 35.4163 35.6501 35.548 35.8845 35.7824C36.119 36.0168 36.2507 36.3347 36.2507 36.6663C36.2507 36.9978 36.119 37.3157 35.8845 37.5501C35.6501 37.7846 35.3322 37.9163 35.0007 37.9163Z" fill="currentColor"/>
      <path id="Vector_6" d="M13.3346 37.9163H6.66797C6.33645 37.9163 6.01851 37.7846 5.78409 37.5501C5.54966 37.3157 5.41797 36.9978 5.41797 36.6663C5.41797 36.3347 5.54966 36.0168 5.78409 35.7824C6.01851 35.548 6.33645 35.4163 6.66797 35.4163H13.3346C13.6662 35.4163 13.9841 35.548 14.2185 35.7824C14.4529 36.0168 14.5846 36.3347 14.5846 36.6663C14.5846 36.9978 14.4529 37.3157 14.2185 37.5501C13.9841 37.7846 13.6662 37.9163 13.3346 37.9163Z" fill="currentColor"/>
    </g>
  </g>
  <g id="finger-scanner">
    <g id="Layer 2">
      <path id="Vector" d="M21.4326 31.2617C21.1894 31.2631 20.951 31.1935 20.7467 31.0615C20.5424 30.9296 20.381 30.7409 20.2821 30.5187C20.1833 30.2965 20.1513 30.0502 20.1902 29.8101C20.2291 29.57 20.337 29.3465 20.5009 29.1667C21.5579 28.0163 22.4041 26.6889 23.0009 25.2451C23.5777 23.145 23.7996 20.9633 23.6576 18.7901C23.6576 18.1478 23.4024 17.5318 22.9483 17.0777C22.4941 16.6235 21.8782 16.3684 21.2359 16.3684C20.5936 16.3684 19.9777 16.6235 19.5235 17.0777C19.0694 17.5318 18.8142 18.1478 18.8142 18.7901C18.8142 21.8367 17.2859 25.8351 14.4526 27.2534C14.156 27.4017 13.8126 27.4261 13.498 27.3212C13.1834 27.2164 12.9234 26.9908 12.7751 26.6942C12.6268 26.3976 12.6024 26.0543 12.7072 25.7397C12.8121 25.4251 13.0376 25.165 13.3342 25.0167C15.1159 24.1251 16.3142 21.0767 16.3142 18.7901C16.3142 17.4848 16.8328 16.2329 17.7558 15.3099C18.6788 14.3869 19.9306 13.8684 21.2359 13.8684C22.5412 13.8684 23.7931 14.3869 24.716 15.3099C25.639 16.2329 26.1576 17.4848 26.1576 18.7901C26.3248 21.2885 26.0391 23.7966 25.3142 26.1934C24.6119 27.9094 23.614 29.4889 22.3659 30.8601C22.247 30.9885 22.1025 31.0906 21.9418 31.1597C21.781 31.2289 21.6076 31.2637 21.4326 31.2617Z" fill="currentColor"/>
      <path id="Vector_2" d="M26.4904 32.6084C26.2627 32.6088 26.0393 32.5471 25.8443 32.4297C25.6492 32.3124 25.4899 32.144 25.3837 31.9426C25.2775 31.7413 25.2283 31.5148 25.2415 31.2876C25.2547 31.0603 25.3298 30.841 25.4587 30.6534C26.61 28.9821 27.483 27.1354 28.0437 25.185C28.7915 22.5091 28.9479 19.7025 28.502 16.96C28.4356 15.4282 27.9596 13.9421 27.1237 12.6567C26.4427 11.8091 25.5687 11.1368 24.5747 10.6961C23.5808 10.2554 22.4957 10.059 21.4104 10.1234C17.8704 10.425 14.1254 14.1234 14.1254 17.31C14.2525 18.7847 14.0313 20.2686 13.4795 21.642C12.9277 23.0155 12.0608 24.2399 10.9487 25.2167C10.8343 25.3395 10.6963 25.438 10.5429 25.5063C10.3896 25.5747 10.2241 25.6114 10.0562 25.6143C9.88839 25.6173 9.72168 25.5864 9.56603 25.5236C9.41038 25.4607 9.26899 25.3671 9.1503 25.2484C9.0316 25.1297 8.93802 24.9883 8.87516 24.8327C8.81229 24.677 8.78141 24.5103 8.78437 24.3425C8.78734 24.1747 8.82407 24.0091 8.89239 23.8558C8.96071 23.7025 9.05921 23.5645 9.18203 23.45C10.0572 22.7019 10.7371 21.7519 11.1628 20.6821C11.5885 19.6123 11.7473 18.4549 11.6254 17.31C11.6254 12.835 16.367 8.04336 21.1987 7.63336C22.7009 7.532 24.2052 7.79765 25.5818 8.40742C26.9584 9.01718 28.166 9.95274 29.1004 11.1334C30.2064 12.7392 30.8525 14.6169 30.9687 16.5634C31.4726 19.6706 31.2946 22.8502 30.447 25.8817C29.8124 28.0894 28.8247 30.1797 27.522 32.0717C27.4063 32.238 27.252 32.3736 27.0723 32.4671C26.8926 32.5606 26.6929 32.6091 26.4904 32.6084Z" fill="currentColor"/>
      <path id="Vector_3" d="M17.5589 29.8338C17.2768 29.835 17.0027 29.7407 16.7812 29.5662C16.5596 29.3917 16.4037 29.1473 16.3387 28.8729C16.2738 28.5984 16.3037 28.3101 16.4236 28.0548C16.5434 27.7996 16.7462 27.5924 16.9989 27.4671C18.0439 26.9438 18.5139 25.5671 18.9789 23.9538C19.0225 23.794 19.0975 23.6444 19.1995 23.5139C19.3014 23.3833 19.4283 23.2743 19.5728 23.1932C19.7172 23.1121 19.8764 23.0605 20.0409 23.0415C20.2055 23.0224 20.3722 23.0363 20.5314 23.0822C20.6905 23.1282 20.839 23.2053 20.9681 23.3091C21.0971 23.413 21.2043 23.5414 21.2833 23.687C21.3623 23.8326 21.4116 23.9925 21.4283 24.1573C21.445 24.3221 21.4287 24.4886 21.3805 24.6471C21.2225 25.672 20.8501 26.652 20.2875 27.523C19.7248 28.3941 18.9847 29.1366 18.1155 29.7021C17.9428 29.7889 17.7522 29.834 17.5589 29.8338Z" fill="currentColor"/>
      <g id="Group">
        <path id="Vector_4" d="M3.33398 16.2504C3.00246 16.2504 2.68452 16.1187 2.4501 15.8843C2.21568 15.6499 2.08398 15.3319 2.08398 15.0004V8.33374C2.08619 6.67681 2.74538 5.08838 3.917 3.91676C5.08863 2.74513 6.67706 2.08595 8.33399 2.08374H15.0007C15.3322 2.08374 15.6501 2.21544 15.8845 2.44986C16.119 2.68428 16.2507 3.00222 16.2507 3.33374C16.2507 3.66526 16.119 3.9832 15.8845 4.21762C15.6501 4.45204 15.3322 4.58374 15.0007 4.58374H8.33399C7.33983 4.58506 6.38677 4.98058 5.6838 5.68355C4.98082 6.38653 4.58531 7.33959 4.58398 8.33374V15.0004C4.58398 15.3319 4.45229 15.6499 4.21787 15.8843C3.98345 16.1187 3.66551 16.2504 3.33398 16.2504Z" fill="currentColor"/>
        <path id="Vector_5" d="M36.6667 16.2504C36.3351 16.2504 36.0172 16.1187 35.7828 15.8843C35.5484 15.6499 35.4167 15.3319 35.4167 15.0004V8.33374C35.4153 7.33959 35.0198 6.38653 34.3169 5.68355C33.6139 4.98058 32.6608 4.58506 31.6667 4.58374H25C24.6685 4.58374 24.3505 4.45204 24.1161 4.21762C23.8817 3.9832 23.75 3.66526 23.75 3.33374C23.75 3.00222 23.8817 2.68428 24.1161 2.44986C24.3505 2.21544 24.6685 2.08374 25 2.08374H31.6667C33.3236 2.08595 34.912 2.74513 36.0836 3.91676C37.2553 5.08838 37.9145 6.67681 37.9167 8.33374V15.0004C37.9167 15.3319 37.785 15.6499 37.5506 15.8843C37.3161 16.1187 36.9982 16.2504 36.6667 16.2504Z" fill="currentColor"/>
        <path id="Vector_6" d="M15.0007 37.9167H8.33399C6.67706 37.9145 5.08863 37.2553 3.917 36.0836C2.74538 34.912 2.08619 33.3236 2.08398 31.6667V25C2.08398 24.6685 2.21568 24.3505 2.4501 24.1161C2.68452 23.8817 3.00246 23.75 3.33398 23.75C3.66551 23.75 3.98345 23.8817 4.21787 24.1161C4.45229 24.3505 4.58398 24.6685 4.58398 25V31.6667C4.58531 32.6608 4.98082 33.6139 5.6838 34.3169C6.38677 35.0198 7.33983 35.4153 8.33399 35.4167H15.0007C15.3322 35.4167 15.6501 35.5484 15.8845 35.7828C16.119 36.0172 16.2507 36.3351 16.2507 36.6667C16.2507 36.9982 16.119 37.3161 15.8845 37.5506C15.6501 37.785 15.3322 37.9167 15.0007 37.9167Z" fill="currentColor"/>
        <path id="Vector_7" d="M31.6667 37.9167H25C24.6685 37.9167 24.3505 37.785 24.1161 37.5506C23.8817 37.3161 23.75 36.9982 23.75 36.6667C23.75 36.3351 23.8817 36.0172 24.1161 35.7828C24.3505 35.5484 24.6685 35.4167 25 35.4167H31.6667C32.6608 35.4153 33.6139 35.0198 34.3169 34.3169C35.0198 33.6139 35.4153 32.6608 35.4167 31.6667V25C35.4167 24.6685 35.5484 24.3505 35.7828 24.1161C36.0172 23.8817 36.3351 23.75 36.6667 23.75C36.9982 23.75 37.3161 23.8817 37.5506 24.1161C37.785 24.3505 37.9167 24.6685 37.9167 25V31.6667C37.9145 33.3236 37.2553 34.912 36.0836 36.0836C34.912 37.2553 33.3236 37.9145 31.6667 37.9167Z" fill="currentColor"/>
      </g>
    </g>
  </g>
  <g id="optimization">
    <g id="Layer 2">
      <path id="Vector" d="M21.0874 37.9171H18.9207C17.9931 37.9218 17.0971 37.5796 16.4089 36.9576C15.7206 36.3356 15.2897 35.4789 15.2007 34.5555C15.1861 34.3219 15.1067 34.0971 14.9712 33.9063C14.8358 33.7155 14.6497 33.5663 14.434 33.4755C14.2269 33.3838 13.9986 33.3509 13.774 33.3803C13.5494 33.4097 13.3373 33.5003 13.1607 33.6421C12.4451 34.2482 11.5281 34.5636 10.5911 34.526C9.6541 34.4883 8.76536 34.1003 8.10071 33.4388L6.56404 31.9005C5.90734 31.2478 5.51777 30.3736 5.47153 29.4488C5.42529 28.5241 5.72572 27.6154 6.31404 26.9005C6.46874 26.7258 6.57161 26.5114 6.61107 26.2814C6.65052 26.0515 6.625 25.815 6.53737 25.5988C6.45645 25.3862 6.31838 25.2001 6.1384 25.061C5.95841 24.9219 5.7435 24.8352 5.51737 24.8105C4.58256 24.7339 3.71066 24.3088 3.07468 23.6194C2.43869 22.93 2.0851 22.0267 2.08404 21.0888V18.9221C2.07893 17.9942 2.42098 17.0979 3.04299 16.4092C3.66501 15.7206 4.52203 15.2895 5.44571 15.2005C5.67925 15.1859 5.9041 15.1064 6.09491 14.971C6.28572 14.8355 6.43492 14.6495 6.52571 14.4338C6.61769 14.2265 6.6508 13.9978 6.6214 13.7729C6.592 13.548 6.50123 13.3355 6.35904 13.1588C5.75257 12.4436 5.43704 11.5266 5.47501 10.5896C5.51298 9.6527 5.90169 8.76424 6.56404 8.10046L8.10071 6.5638C8.7532 5.90675 9.62747 5.51694 10.5523 5.4707C11.4771 5.42446 12.3859 5.72512 13.1007 6.3138C13.2757 6.46799 13.49 6.57052 13.7199 6.60996C13.9497 6.64939 14.186 6.62418 14.4024 6.53713C14.615 6.45621 14.8011 6.31814 14.9402 6.13815C15.0793 5.95817 15.166 5.74326 15.1907 5.51713C15.2672 4.58231 15.6924 3.71042 16.3818 3.07443C17.0712 2.43845 17.9744 2.08485 18.9124 2.0838H21.079C22.007 2.07869 22.9033 2.42073 23.5919 3.04275C24.2806 3.66476 24.7117 4.52178 24.8007 5.44546C24.8153 5.67901 24.8948 5.90385 25.0302 6.09466C25.1657 6.28547 25.3517 6.43468 25.5674 6.52546C25.7746 6.61674 26.0028 6.64947 26.2273 6.62009C26.4518 6.5907 26.664 6.50033 26.8407 6.3588C27.5558 5.75163 28.473 5.43552 29.4104 5.47318C30.3477 5.51085 31.2366 5.89954 31.9007 6.56213L33.439 8.0988C34.0952 8.75189 34.4842 9.62616 34.5301 10.5508C34.576 11.4754 34.2756 12.3839 33.6874 13.0988C33.5328 13.2732 33.43 13.4873 33.3906 13.717C33.3511 13.9467 33.3766 14.1828 33.464 14.3988C33.5446 14.6118 33.6825 14.7984 33.8625 14.9378C34.0425 15.0772 34.2577 15.1641 34.484 15.1888C35.4189 15.2653 36.2908 15.6905 36.9267 16.3798C37.5627 17.0692 37.9163 17.9725 37.9174 18.9105V21.0771C37.9204 22.0036 37.5774 22.8979 36.9556 23.5848C36.3338 24.2716 35.478 24.7016 34.5557 24.7905C34.3222 24.805 34.0973 24.8845 33.9065 25.02C33.7157 25.1554 33.5665 25.3415 33.4757 25.5571C33.3841 25.7643 33.3511 25.9926 33.3805 26.2172C33.4099 26.4417 33.5005 26.6539 33.6424 26.8305C34.249 27.5457 34.565 28.4627 34.5276 29.3998C34.4903 30.3369 34.1024 31.2258 33.4407 31.8905L31.9024 33.4288C31.2493 34.0849 30.375 34.4739 29.4504 34.5199C28.5258 34.5658 27.6173 34.2653 26.9024 33.6771C26.7277 33.5224 26.5133 33.4196 26.2833 33.3801C26.0534 33.3406 25.817 33.3662 25.6007 33.4538C25.3881 33.5347 25.202 33.6728 25.0629 33.8528C24.9238 34.0328 24.8371 34.2477 24.8124 34.4738C24.7382 35.411 24.3136 36.2858 23.6233 36.924C22.9329 37.5621 22.0275 37.9167 21.0874 37.9171ZM13.9407 30.8705C14.8683 30.8744 15.7621 31.2195 16.4515 31.8401C17.141 32.4607 17.5779 33.3134 17.679 34.2355C17.6964 34.5524 17.8337 34.8509 18.063 35.0704C18.2924 35.2898 18.5966 35.4138 18.914 35.4171H21.0807C21.3867 35.4181 21.682 35.3049 21.9089 35.0996C22.1358 34.8943 22.2779 34.6117 22.3074 34.3071C22.3676 33.6278 22.6112 32.9777 23.0121 32.426C23.413 31.8744 23.9563 31.442 24.5838 31.175C25.2113 30.9081 25.8996 30.8166 26.5751 30.9103C27.2505 31.004 27.8879 31.2794 28.419 31.7071C28.6561 31.9205 28.9657 32.0352 29.2845 32.0278C29.6033 32.0203 29.9072 31.8913 30.134 31.6671L31.6674 30.1338C31.8839 29.9176 32.0123 29.6285 32.0274 29.3229C32.0425 29.0173 31.9432 28.7169 31.749 28.4805C31.3112 27.9577 31.0236 27.3258 30.917 26.6523C30.8104 25.9788 30.8888 25.289 31.1438 24.6565C31.3988 24.0241 31.8209 23.4729 32.3649 23.0617C32.9089 22.6505 33.5544 22.3949 34.2324 22.3221C34.5493 22.3048 34.8478 22.1675 35.0673 21.9382C35.2867 21.7088 35.4107 21.4045 35.414 21.0871V18.9205C35.4151 18.6145 35.3018 18.3191 35.0965 18.0922C34.8912 17.8654 34.6086 17.7233 34.304 17.6938C33.6248 17.6336 32.9746 17.39 32.4229 16.9891C31.8713 16.5881 31.4389 16.0449 31.1719 15.4174C30.905 14.7898 30.8135 14.1016 30.9072 13.4261C31.0009 12.7506 31.2763 12.1133 31.704 11.5821C31.9178 11.3455 32.0331 11.0362 32.0263 10.7173C32.0195 10.3985 31.8911 10.0944 31.6674 9.86713L30.134 8.3338C29.9185 8.11666 29.6296 7.98791 29.324 7.9728C29.0185 7.95769 28.7183 8.05732 28.4824 8.25213C27.9595 8.69169 27.327 8.98073 26.6524 9.08829C25.9779 9.19585 25.2868 9.11787 24.6531 8.86271C24.0195 8.60755 23.4672 8.18482 23.0555 7.63981C22.6437 7.09479 22.388 6.44803 22.3157 5.7688C22.2984 5.45184 22.1611 5.15334 21.9317 4.93389C21.7024 4.71444 21.3981 4.59047 21.0807 4.58713H18.914C18.6081 4.58612 18.3127 4.69936 18.0858 4.90466C17.8589 5.10997 17.7169 5.39257 17.6874 5.69713C17.6264 6.376 17.3823 7.02559 16.9811 7.57665C16.58 8.12772 16.0368 8.55961 15.4096 8.82629C14.7823 9.09297 14.0944 9.18445 13.4192 9.09097C12.7441 8.99748 12.1069 8.72255 11.5757 8.29546C11.3393 8.08383 11.0312 7.97003 10.714 7.97715C10.3967 7.98427 10.0941 8.11177 9.86737 8.3338L8.33404 9.86713C8.11748 10.0833 7.98914 10.3724 7.97405 10.678C7.95895 10.9837 8.05817 11.284 8.25237 11.5205C8.69024 12.0432 8.97783 12.6751 9.08444 13.3486C9.19104 14.0221 9.11264 14.712 8.85762 15.3444C8.6026 15.9768 8.18054 16.5281 7.63654 16.9392C7.09254 17.3504 6.44705 17.606 5.76904 17.6788C5.45208 17.6961 5.15359 17.8334 4.93414 18.0628C4.71468 18.2921 4.59071 18.5964 4.58737 18.9138V21.0805C4.58637 21.3864 4.6996 21.6818 4.90491 21.9087C5.11021 22.1356 5.39281 22.2777 5.69737 22.3071C6.37653 22.3676 7.02653 22.6113 7.57804 23.0122C8.12956 23.4132 8.5619 23.9563 8.82897 24.5836C9.09603 25.211 9.18779 25.8991 9.09446 26.5745C9.00114 27.2499 8.72622 27.8874 8.29904 28.4188C8.08465 28.655 7.96881 28.9643 7.97532 29.2833C7.98183 29.6022 8.11019 29.9065 8.33404 30.1338L9.86737 31.6671C10.0829 31.8843 10.3718 32.013 10.6774 32.0281C10.9829 32.0432 11.2831 31.9436 11.519 31.7488C12.2002 31.1843 13.0561 30.8739 13.9407 30.8705Z" fill="currentColor"/>
      <g id="Group">
        <path id="Vector_2" d="M20.0007 30.4171C17.9404 30.4171 15.9265 29.8062 14.2135 28.6616C12.5005 27.517 11.1653 25.8901 10.3769 23.9867C9.5885 22.0833 9.38221 19.9889 9.78414 17.9682C10.1861 15.9476 11.1782 14.0915 12.635 12.6347C14.0918 11.1779 15.9478 10.1858 17.9685 9.7839C19.9891 9.38197 22.0835 9.58825 23.9869 10.3767C25.8903 11.1651 27.5172 12.5002 28.6618 14.2132C29.8064 15.9262 30.4173 17.9402 30.4173 20.0004C30.4142 22.7621 29.3158 25.4099 27.3629 27.3627C25.4101 29.3155 22.7624 30.414 20.0007 30.4171ZM20.0007 12.0837C18.4349 12.0837 16.9043 12.548 15.6024 13.4179C14.3005 14.2878 13.2858 15.5243 12.6866 16.9708C12.0874 18.4174 11.9306 20.0092 12.2361 21.5449C12.5416 23.0806 13.2956 24.4912 14.4027 25.5983C15.5099 26.7055 16.9205 27.4595 18.4562 27.765C19.9919 28.0704 21.5837 27.9137 23.0302 27.3145C24.4768 26.7153 25.7132 25.7006 26.5831 24.3987C27.453 23.0968 27.9173 21.5662 27.9173 20.0004C27.9147 17.9016 27.0798 15.8895 25.5957 14.4054C24.1116 12.9213 22.0995 12.0864 20.0007 12.0837Z" fill="currentColor"/>
        <path id="Vector_3" d="M20.0013 29.5841C17.0013 29.5841 15.418 24.7625 15.418 20.0008C15.418 15.2391 17.0013 10.4175 20.0013 10.4175C23.0013 10.4175 24.5846 15.2391 24.5846 20.0008C24.5846 24.7625 23.0096 29.5841 20.0013 29.5841ZM20.0013 12.9175C19.4663 12.9175 17.918 15.3525 17.918 20.0008C17.918 24.6491 19.4663 27.0841 20.0013 27.0841C20.5363 27.0841 22.0846 24.6491 22.0846 20.0008C22.0846 15.3525 20.5363 12.9175 20.0013 12.9175Z" fill="currentColor"/>
        <path id="Vector_4" d="M28.3341 21.25H11.6675C11.336 21.25 11.018 21.1183 10.7836 20.8839C10.5492 20.6495 10.4175 20.3315 10.4175 20C10.4175 19.6685 10.5492 19.3505 10.7836 19.1161C11.018 18.8817 11.336 18.75 11.6675 18.75H28.3341C28.6657 18.75 28.9836 18.8817 29.218 19.1161C29.4525 19.3505 29.5841 19.6685 29.5841 20C29.5841 20.3315 29.4525 20.6495 29.218 20.8839C28.9836 21.1183 28.6657 21.25 28.3341 21.25Z" fill="currentColor"/>
      </g>
    </g>
  </g>
  <g id="presentation">
    <g id="Layer 2">
      <g id="Group">
        <path id="Vector" d="M33.334 29.5833H6.66732C5.45201 29.5825 4.28674 29.0993 3.42739 28.2399C2.56804 27.3806 2.08487 26.2153 2.08398 25V8.33333C2.08487 7.11803 2.56804 5.95275 3.42739 5.0934C4.28674 4.23405 5.45201 3.75088 6.66732 3.75H33.334C34.5493 3.75088 35.7146 4.23405 36.5739 5.0934C37.4333 5.95275 37.9164 7.11803 37.9173 8.33333V25C37.9164 26.2153 37.4333 27.3806 36.5739 28.2399C35.7146 29.0993 34.5493 29.5825 33.334 29.5833ZM6.66732 6.25C6.11505 6.25088 5.58566 6.47066 5.19515 6.86117C4.80464 7.25168 4.58487 7.78107 4.58398 8.33333V25C4.58487 25.5523 4.80464 26.0817 5.19515 26.4722C5.58566 26.8627 6.11505 27.0825 6.66732 27.0833H33.334C33.8862 27.0825 34.4156 26.8627 34.8062 26.4722C35.1967 26.0817 35.4164 25.5523 35.4173 25V8.33333C35.4164 7.78107 35.1967 7.25168 34.8062 6.86117C34.4156 6.47066 33.8862 6.25088 33.334 6.25H6.66732Z" fill="currentColor"/>
        <path id="Vector_2" d="M10.0009 36.25C9.75379 36.2498 9.51233 36.1763 9.30697 36.039C9.10161 35.9016 8.94156 35.7065 8.84704 35.4782C8.75252 35.2499 8.72777 34.9988 8.77591 34.7564C8.82405 34.5141 8.94293 34.2915 9.11752 34.1167L15.7842 27.45C16.0211 27.2292 16.3346 27.109 16.6584 27.1147C16.9822 27.1204 17.2912 27.2516 17.5202 27.4806C17.7492 27.7096 17.8804 28.0186 17.8861 28.3425C17.8919 28.6663 17.7717 28.9797 17.5509 29.2167L10.8842 35.8833C10.7686 35.9999 10.6309 36.0923 10.4793 36.1552C10.3277 36.2182 10.165 36.2504 10.0009 36.25Z" fill="currentColor"/>
        <path id="Vector_3" d="M30.0012 36.2497C29.837 36.2501 29.6744 36.2179 29.5228 36.155C29.3711 36.0921 29.2335 35.9996 29.1179 35.8831L22.4512 29.2164C22.2304 28.9795 22.1102 28.666 22.1159 28.3422C22.1216 28.0184 22.2528 27.7094 22.4818 27.4804C22.7109 27.2514 23.0198 27.1202 23.3437 27.1145C23.6675 27.1087 23.9809 27.2289 24.2179 27.4497L30.8845 34.1164C31.0591 34.2912 31.178 34.5139 31.2262 34.7562C31.2743 34.9985 31.2495 35.2497 31.155 35.478C31.0605 35.7062 30.9005 35.9014 30.6951 36.0387C30.4897 36.1761 30.2483 36.2495 30.0012 36.2497Z" fill="currentColor"/>
        <path id="Vector_4" d="M20 36.2504C19.6685 36.2504 19.3505 36.1187 19.1161 35.8843C18.8817 35.6499 18.75 35.3319 18.75 35.0004V28.3337C18.75 28.0022 18.8817 27.6843 19.1161 27.4499C19.3505 27.2154 19.6685 27.0837 20 27.0837C20.3315 27.0837 20.6495 27.2154 20.8839 27.4499C21.1183 27.6843 21.25 28.0022 21.25 28.3337V35.0004C21.25 35.3319 21.1183 35.6499 20.8839 35.8843C20.6495 36.1187 20.3315 36.2504 20 36.2504Z" fill="currentColor"/>
      </g>
      <path id="Vector_5" d="M29.1673 24.5837H10.834C10.5025 24.5837 10.1845 24.452 9.9501 24.2176C9.71568 23.9832 9.58398 23.6653 9.58398 23.3337C9.58398 23.0022 9.71568 22.6843 9.9501 22.4499C10.1845 22.2154 10.5025 22.0837 10.834 22.0837H29.1673C29.4988 22.0837 29.8168 22.2154 30.0512 22.4499C30.2856 22.6843 30.4173 23.0022 30.4173 23.3337C30.4173 23.6653 30.2856 23.9832 30.0512 24.2176C29.8168 24.452 29.4988 24.5837 29.1673 24.5837Z" fill="currentColor"/>
      <path id="Vector_6" d="M20 24.5833C19.6685 24.5833 19.3505 24.4516 19.1161 24.2172C18.8817 23.9828 18.75 23.6649 18.75 23.3333V10C18.75 9.66848 18.8817 9.35054 19.1161 9.11612C19.3505 8.8817 19.6685 8.75 20 8.75C20.3315 8.75 20.6495 8.8817 20.8839 9.11612C21.1183 9.35054 21.25 9.66848 21.25 10V23.3333C21.25 23.6649 21.1183 23.9828 20.8839 24.2172C20.6495 24.4516 20.3315 24.5833 20 24.5833Z" fill="currentColor"/>
      <path id="Vector_7" d="M26.668 24.5837C26.3364 24.5837 26.0185 24.452 25.7841 24.2176C25.5497 23.9832 25.418 23.6653 25.418 23.3337V13.3337C25.418 13.0022 25.5497 12.6843 25.7841 12.4499C26.0185 12.2154 26.3364 12.0837 26.668 12.0837C26.9995 12.0837 27.3174 12.2154 27.5519 12.4499C27.7863 12.6843 27.918 13.0022 27.918 13.3337V23.3337C27.918 23.6653 27.7863 23.9832 27.5519 24.2176C27.3174 24.452 26.9995 24.5837 26.668 24.5837Z" fill="currentColor"/>
      <path id="Vector_8" d="M13.334 24.5837C13.0025 24.5837 12.6845 24.452 12.4501 24.2176C12.2157 23.9832 12.084 23.6653 12.084 23.3337V13.3337C12.084 13.0022 12.2157 12.6843 12.4501 12.4499C12.6845 12.2154 13.0025 12.0837 13.334 12.0837C13.6655 12.0837 13.9834 12.2154 14.2179 12.4499C14.4523 12.6843 14.584 13.0022 14.584 13.3337V23.3337C14.584 23.6653 14.4523 23.9832 14.2179 24.2176C13.9834 24.452 13.6655 24.5837 13.334 24.5837Z" fill="currentColor"/>
    </g>
  </g>
  <g id="diamond">
    <g id="Layer 2">
      <path id="Vector" d="M20.0004 37.9171C19.7288 37.917 19.4646 37.8285 19.2478 37.6649C19.031 37.5013 18.8733 37.2716 18.7987 37.0104L12.1321 13.6771C12.0789 13.4911 12.0697 13.2953 12.1051 13.1051C12.1405 12.9149 12.2195 12.7355 12.336 12.5811C12.4525 12.4266 12.6032 12.3013 12.7763 12.215C12.9495 12.1287 13.1403 12.0838 13.3337 12.0837H26.6671C26.8605 12.0838 27.0513 12.1287 27.2244 12.215C27.3976 12.3013 27.5483 12.4266 27.6648 12.5811C27.7813 12.7355 27.8603 12.9149 27.8957 13.1051C27.9311 13.2953 27.9219 13.4911 27.8687 13.6771L21.2021 37.0104C21.1275 37.2716 20.9698 37.5013 20.753 37.6649C20.5362 37.8285 20.272 37.917 20.0004 37.9171ZM14.9904 14.5837L20.0004 32.1171L25.0104 14.5837H14.9904Z" fill="#0C0C1C"/>
      <path id="Vector_2" d="M26.6674 14.5837C26.405 14.584 26.1493 14.5016 25.9365 14.3481C25.7237 14.1945 25.5648 13.9778 25.4824 13.7287L22.4324 4.58374H17.5691L14.5191 13.7287C14.4143 14.043 14.189 14.3028 13.8927 14.451C13.5964 14.5991 13.2533 14.6235 12.9391 14.5187C12.6248 14.414 12.365 14.1887 12.2168 13.8924C12.0687 13.596 12.0443 13.253 12.1491 12.9387L15.4824 2.93874C15.5653 2.68994 15.7243 2.47349 15.9369 2.32005C16.1496 2.16661 16.4052 2.08394 16.6674 2.08374H23.3341C23.5963 2.08394 23.8518 2.16661 24.0645 2.32005C24.2772 2.47349 24.4362 2.68994 24.5191 2.93874L27.8524 12.9387C27.957 13.2533 27.9325 13.5964 27.7844 13.8929C27.6363 14.1894 27.3767 14.4151 27.0624 14.5204C26.9348 14.5618 26.8015 14.5832 26.6674 14.5837Z" fill="#0C0C1C"/>
      <g id="Group">
        <path id="Vector_3" d="M36.6672 14.5837H3.33389C3.10766 14.5837 2.88566 14.5223 2.69159 14.406C2.49751 14.2898 2.33863 14.123 2.23188 13.9235C2.12513 13.7241 2.07452 13.4994 2.08544 13.2734C2.09636 13.0474 2.16841 12.8287 2.29389 12.6404L8.96056 2.64041C9.07459 2.46908 9.22921 2.3286 9.41066 2.23148C9.59211 2.13436 9.79475 2.08361 10.0006 2.08374H31.6672C31.8995 2.08356 32.1273 2.1482 32.3248 2.27039C32.5224 2.39258 32.682 2.56748 32.7856 2.77541L37.7856 12.7754C37.8807 12.966 37.9256 13.1777 37.9159 13.3905C37.9062 13.6033 37.8423 13.8101 37.7303 13.9912C37.6183 14.1724 37.4618 14.3219 37.2758 14.4256C37.0897 14.5293 36.8802 14.5837 36.6672 14.5837ZM5.66723 12.0837H34.6456L30.8956 4.58374H10.6672L5.66723 12.0837Z" fill="#0C0C1C"/>
        <path id="Vector_4" d="M20.0002 37.9171C19.8013 37.9171 19.6053 37.8697 19.4285 37.7787C19.2516 37.6876 19.0991 37.5557 18.9836 37.3937L2.3169 14.0604C2.1834 13.8735 2.10395 13.6535 2.08728 13.4245C2.07061 13.1954 2.11736 12.9662 2.2224 12.762C2.32743 12.5578 2.4867 12.3865 2.68272 12.2668C2.87873 12.1472 3.10392 12.0838 3.33357 12.0837H36.6669C36.8966 12.0838 37.1217 12.1472 37.3178 12.2668C37.5138 12.3865 37.673 12.5578 37.7781 12.762C37.8831 12.9662 37.9299 13.1954 37.9132 13.4245C37.8965 13.6535 37.8171 13.8735 37.6836 14.0604L21.0169 37.3937C20.9014 37.5557 20.7489 37.6876 20.572 37.7787C20.3952 37.8697 20.1991 37.9171 20.0002 37.9171ZM5.76357 14.5837L20.0002 34.5171L34.2369 14.5837H5.76357Z" fill="#0C0C1C"/>
      </g>
    </g>
  </g>
  
  <!-- LOGO -->
  <g id="logo">
    <g id="Icon" clip-path="url(#clip0_405_9370)">
      <path id="Vector" d="M19.7413 20.5271C19.7679 20.4472 19.7812 20.3673 19.7946 20.3007C19.981 19.5414 20.0743 18.7555 20.0743 17.9696C20.0743 17.823 20.0743 17.6632 20.0743 17.5167C20.0743 17.3968 20.061 17.2902 20.0477 17.1703C19.6614 17.7165 19.2218 18.236 18.7422 18.7155C17.4768 19.981 15.9982 20.9134 14.4263 21.5128C14.3464 21.5395 14.2532 21.5661 14.1732 21.6061C13.5072 21.8459 12.8279 22.019 12.1352 22.1389C11.4425 22.2588 10.7498 22.3121 10.0572 22.3121C9.80407 22.3121 9.55098 22.3121 9.29789 22.2854C9.16468 22.2854 9.01815 22.2588 8.88495 22.2588C8.23224 22.1922 7.5662 22.0723 6.92681 21.9125H6.91349C4.88875 21.3796 2.95726 20.314 1.3721 18.7155C0.87924 18.2226 0.452979 17.7165 0.0666804 17.1703C0.0400391 17.4367 0.0400391 17.7031 0.0400391 17.9696C0.0400391 20.4472 0.945843 22.9248 2.77077 24.8563C2.83737 24.9229 2.90398 25.0029 2.97058 25.0695C3.03718 25.1361 3.11711 25.2027 3.18371 25.2693C5.11521 27.0942 7.57952 28 10.0705 28C11.2827 28 12.4948 27.7869 13.6404 27.3473C14.9192 26.8544 16.1314 26.0951 17.1704 25.0561C18.4758 23.7507 19.3417 22.1922 19.7812 20.5271H19.7413Z" fill="#0C0C1C"/>
      <path id="Vector_2" d="M8.27233 7.47288C8.27233 7.47288 8.24569 7.60609 8.23237 7.67269C8.07252 8.33873 7.97928 9.0314 7.95264 9.72407C7.95264 9.83064 7.95264 9.9372 7.95264 10.0438C7.95264 10.1903 7.95264 10.3501 7.95264 10.4967C7.95264 10.6032 7.96596 10.7231 7.97928 10.8297C8.36558 10.2835 8.80516 9.77736 9.2847 9.28449C10.5502 8.01903 12.0288 7.08658 13.6006 6.48715C13.6805 6.46051 13.7471 6.43387 13.827 6.40723C13.8537 6.40723 13.867 6.39391 13.8803 6.38059L13.9469 6.35395C13.9469 6.35395 13.9869 6.34063 14.0135 6.32731H14.0402C14.0402 6.32731 14.1201 6.30067 14.1601 6.27402C14.2133 6.2607 14.2533 6.24738 14.3066 6.23406H14.3599C14.3599 6.23406 14.3998 6.20742 14.4131 6.20742H14.4398C14.4398 6.20742 14.4531 6.20742 14.4664 6.1941H14.4931C14.5863 6.15414 14.6929 6.1275 14.7861 6.10086C14.8661 6.07421 14.946 6.06089 15.0259 6.04757C15.0525 6.04757 15.0659 6.04757 15.0792 6.03425C15.0925 6.03425 15.1191 6.03425 15.1325 6.02093C15.1724 6.02093 15.2124 6.00761 15.2524 5.99429C15.3323 5.98097 15.4122 5.95433 15.4921 5.94101C15.572 5.92769 15.652 5.91437 15.7319 5.90105C15.7719 5.90105 15.7985 5.88773 15.8385 5.87441H15.8651C15.8651 5.87441 15.9317 5.86108 15.9717 5.84776C16.0516 5.83444 16.1315 5.82112 16.2114 5.8078C16.3713 5.78116 16.5311 5.76784 16.691 5.75452C16.9308 5.72788 17.1705 5.71456 17.4103 5.70124C17.5968 5.70124 17.7833 5.70124 17.9698 5.70124C18.2362 5.70124 18.5026 5.70124 18.7557 5.72788C19.5416 5.78116 20.3408 5.90105 21.1001 6.11418H21.1134C23.1382 6.66032 25.0563 7.71265 26.6548 9.31113C27.1477 9.79068 27.5739 10.3102 27.9602 10.8563C27.9869 10.5899 27.9869 10.3235 27.9869 10.0571C27.9869 7.57945 27.0678 5.11513 25.2562 3.18363C25.1896 3.11703 25.1229 3.03711 25.0563 2.9705C24.9897 2.9039 24.9231 2.8373 24.8432 2.77069C22.925 0.919125 20.474 0 18.0097 0C16.7842 0 15.5587 0.21313 14.3998 0.652712C13.1077 1.14558 11.9089 1.90485 10.8699 2.94386C9.56444 4.24929 8.69859 5.8078 8.25901 7.47288H8.27233Z" fill="#0C0C1C"/>
      <path id="Vector_3" d="M2.94386 17.1304C4.24929 18.4358 5.8078 19.3016 7.47288 19.7412C8.31208 19.9676 9.17793 20.0742 10.0304 20.0742C10.2969 20.0742 10.5633 20.0742 10.8164 20.0476C10.2702 19.6613 9.76403 19.2217 9.27117 18.7422C8.00571 17.4767 7.07326 15.9981 6.47383 14.4263C5.94101 13.0276 5.6746 11.5357 5.6746 10.0571C5.6746 9.00476 5.8078 7.93911 6.07421 6.91342C6.60704 4.87536 7.67269 2.95718 9.25785 1.35871C9.73739 0.879163 10.2436 0.452903 10.7631 0.0799244C10.7631 0.0799244 10.7897 0.0666038 10.803 0.0532831C10.5366 0.0266418 10.2702 0.0266418 10.0038 0.0266418C7.52617 0.0266418 5.04852 0.932446 3.11703 2.75737C3.05043 2.82398 2.9705 2.89058 2.9039 2.95718C2.8373 3.02379 2.77069 3.09039 2.70409 3.17031C0.905804 5.07517 0 7.55281 0 10.0304C0 11.2426 0.21313 12.4548 0.652712 13.6137C1.14558 14.8925 1.90485 16.1047 2.94386 17.1437V17.1304Z" fill="#0C0C1C"/>
      <path id="Vector_4" d="M25.0696 10.883C23.7641 9.57755 22.2056 8.7117 20.5405 8.27212C19.9145 8.09895 19.2751 8.00571 18.6224 7.95243C18.4092 7.93911 18.1961 7.92579 17.9696 7.92579C17.8231 7.92579 17.6633 7.92579 17.5167 7.92579C17.3969 7.92579 17.2903 7.93911 17.1704 7.95243C17.7166 8.33873 18.2361 8.77831 18.7156 9.27117C19.3417 9.89724 19.9011 10.5899 20.3674 11.3092C20.8336 12.0285 21.2199 12.8011 21.5129 13.5871C22.0458 14.999 22.3122 16.4776 22.3122 17.9562C22.3122 18.3559 22.2855 18.7422 22.2589 19.1418C22.2323 19.4082 22.2056 19.6613 22.1523 19.9277C22.0857 20.3273 22.0058 20.7136 21.8992 21.0999C21.3664 23.138 20.3008 25.0695 18.7156 26.6546C18.2361 27.1342 17.7166 27.5737 17.1704 27.96C17.4368 27.9867 17.7032 27.9867 17.9696 27.9867C20.4473 27.9867 22.9116 27.0809 24.8431 25.2559C24.9097 25.1893 24.9763 25.1227 25.0562 25.0561C25.1362 24.9895 25.1894 24.9229 25.256 24.843C27.081 22.9115 27.9868 20.4472 27.9868 17.9696C27.9868 16.7574 27.7736 15.5452 27.3341 14.3996C26.8412 13.1075 26.0819 11.9087 25.0429 10.8696L25.0696 10.883Z" fill="#0C0C1C"/>
    </g>
    <defs>
      <clipPath id="clip0_405_9370">
        <rect width="28" height="28" fill="currentColor"/>
      </clipPath>
    </defs>
  </g>

  <!-- Language -->
  <g id="language">
    <g id="vuesax/linear/global">
      <g id="global">
        <path id="Vector" d="M12 22.5C17.5228 22.5 22 18.0228 22 12.5C22 6.97715 17.5228 2.5 12 2.5C6.47715 2.5 2 6.97715 2 12.5C2 18.0228 6.47715 22.5 12 22.5Z" stroke="white" stroke-width="1.5" stroke-linecap="round" stroke-linejoin="round"/>
        <path id="Vector_2" d="M7.99961 3.5H8.99961C7.04961 9.34 7.04961 15.66 8.99961 21.5H7.99961" stroke="white" stroke-width="1.5" stroke-linecap="round" stroke-linejoin="round"/>
        <path id="Vector_3" d="M15 3.5C16.95 9.34 16.95 15.66 15 21.5" stroke="white" stroke-width="1.5" stroke-linecap="round" stroke-linejoin="round"/>
        <path id="Vector_4" d="M3 16.5V15.5C8.84 17.45 15.16 17.45 21 15.5V16.5" stroke="white" stroke-width="1.5" stroke-linecap="round" stroke-linejoin="round"/>
        <path id="Vector_5" d="M3 9.5C8.84 7.55 15.16 7.55 21 9.5" stroke="white" stroke-width="1.5" stroke-linecap="round" stroke-linejoin="round"/>
      </g>
    </g>
  </g>

  <!-- Message -->
  <g id="message">
    <path id="Stroke 1" d="M13.426 5.63818L10.0936 8.34796C9.46395 8.84746 8.5781 8.84746 7.94848 8.34796L4.58789 5.63818" stroke="currentColor" stroke-width="1.5" stroke-linecap="round" stroke-linejoin="round"/>
    <path id="Stroke 3" fill-rule="evenodd" clip-rule="evenodd" d="M12.6816 14.75C14.9627 14.7563 16.5 12.8822 16.5 10.5788V5.42751C16.5 3.12412 14.9627 1.25 12.6816 1.25H5.31835C3.03734 1.25 1.5 3.12412 1.5 5.42751V10.5788C1.5 12.8822 3.03734 14.7563 5.31835 14.75H12.6816Z" stroke="currentColor" stroke-width="1.5" stroke-linecap="round" stroke-linejoin="round"/>
  </g>

  <!-- Menu Arrow -->
  <g id="stroke">
    <path d="M8.5 0.75L5 4.25L1.5 0.75" stroke="white" stroke-width="1.5" stroke-linecap="round" stroke-linejoin="round"/>
  </g>

</svg>
