<svg width="20" height="20" viewBox="0 0 20 20" fill="none" xmlns="http://www.w3.org/2000/svg">
<g id="Huge-icon/interface/outline/user">
<path id="Vector" d="M12.5832 5.83333C12.5832 7.26007 11.4266 8.41667 9.99984 8.41667V9.91667C12.255 9.91667 14.0832 8.0885 14.0832 5.83333H12.5832ZM9.99984 8.41667C8.5731 8.41667 7.4165 7.26007 7.4165 5.83333H5.9165C5.9165 8.0885 7.74467 9.91667 9.99984 9.91667V8.41667ZM7.4165 5.83333C7.4165 4.4066 8.5731 3.25 9.99984 3.25V1.75C7.74467 1.75 5.9165 3.57817 5.9165 5.83333H7.4165ZM9.99984 3.25C11.4266 3.25 12.5832 4.4066 12.5832 5.83333H14.0832C14.0832 3.57817 12.255 1.75 9.99984 1.75V3.25ZM15.0832 14.5833C15.0832 14.9516 14.7651 15.487 13.7892 15.9749C12.8582 16.4404 11.5195 16.75 9.99984 16.75V18.25C11.7019 18.25 13.2798 17.9067 14.46 17.3165C15.5954 16.7489 16.5832 15.8259 16.5832 14.5833H15.0832ZM9.99984 16.75C8.48019 16.75 7.14149 16.4404 6.21046 15.9749C5.23456 15.487 4.9165 14.9516 4.9165 14.5833H3.4165C3.4165 15.8259 4.40428 16.7489 5.53964 17.3165C6.71985 17.9067 8.29782 18.25 9.99984 18.25V16.75ZM4.9165 14.5833C4.9165 14.215 5.23456 13.6797 6.21046 13.1918C7.14149 12.7262 8.48019 12.4167 9.99984 12.4167V10.9167C8.29782 10.9167 6.71985 11.26 5.53964 11.8501C4.40428 12.4178 3.4165 13.3408 3.4165 14.5833H4.9165ZM9.99984 12.4167C11.5195 12.4167 12.8582 12.7262 13.7892 13.1918C14.7651 13.6797 15.0832 14.215 15.0832 14.5833H16.5832C16.5832 13.3408 15.5954 12.4178 14.46 11.8501C13.2798 11.26 11.7019 10.9167 9.99984 10.9167V12.4167Z" fill="white"/>
</g>
</svg>
